<svg width="517" height="214" viewBox="0 0 517 214" fill="none" xmlns="http://www.w3.org/2000/svg">
<path d="M80.2719 151.171L86.8959 133.795H114.16L120.784 151.267C121.168 152.515 121.936 152.899 123.28 152.899H130.096C131.536 152.899 132.208 152.323 131.632 150.883L106.96 88.7709C106.576 88.0029 106 87.6189 105.136 87.6189H96.4959C95.5359 87.6189 95.0559 88.0989 94.7679 88.7709L69.9999 150.883C69.4239 152.323 69.9999 152.899 71.5359 152.899H77.8719C79.1199 152.899 79.8879 152.323 80.2719 151.171ZM89.8719 125.731L100.528 97.6989L111.088 125.731H89.8719Z" fill="black"/>
<path d="M169 151.651V88.7709C169 88.0989 168.52 87.6189 167.848 87.6189H160.648C159.88 87.6189 159.4 88.0989 159.4 88.7709V117.571C155.848 114.595 151.336 113.059 146.824 113.059C136.705 114.399 130.705 120.451 130.705 133.411C130.705 147.139 137.205 152.399 146.728 153.859C152.392 153.859 156.232 151.939 159.4 148.771V151.651C159.4 152.419 159.88 152.899 160.648 152.899H167.848C168.52 152.899 169 152.419 169 151.651ZM149.32 121.027C153.16 121.027 156.136 122.467 159.4 125.635V140.803C156.136 144.259 152.968 145.795 149.416 145.795C142.888 145.795 138.705 140.995 138.705 133.411C138.705 125.923 142.792 121.027 149.32 121.027Z" fill="black"/>
<path d="M210.581 150.595C211.445 150.115 211.445 149.635 211.157 148.867L209.621 144.355C209.237 143.395 208.757 143.203 207.701 143.587C204.821 144.835 200.309 146.275 195.701 146.275C188.021 146.275 183.317 142.147 182.549 135.043H208.949C209.813 135.043 210.197 134.755 210.293 133.987C210.485 133.027 210.485 131.587 210.485 130.723C210.485 120.067 203.381 113.059 192.629 113.059C180.437 113.059 173 120.727 173 133.399C173 146.167 180.629 153.859 194.837 153.859C200.405 153.859 206.453 152.803 210.581 150.595ZM192.437 120.355C197.621 120.355 200.885 123.331 201.461 129.955H182.645C183.605 124.099 187.349 120.355 192.437 120.355Z" fill="black"/>
<path d="M214.915 175.651C214.915 176.419 215.491 176.899 216.163 176.899H223.363C224.131 176.899 224.515 176.419 224.515 175.651V149.347C226.736 151.208 229.37 152.506 232.136 153.217C235.427 154.064 238.962 153.831 242.109 152.548C248.835 149.805 252.591 143.542 253 133.411C253 122.684 248.873 116.855 241.128 114.114C238.628 113.23 235.922 112.918 233.314 113.405C229.621 114.095 226.824 115.789 224.515 118.243V115.171C224.515 114.499 224.131 114.019 223.363 114.019H216.163C215.491 114.019 214.915 114.499 214.915 115.171V175.651ZM234.691 145.795C230.755 145.795 227.779 144.355 224.515 141.187V126.115C227.779 122.563 230.947 121.027 234.595 121.027C241.027 121.027 245.5 125.923 245.5 133.411C245.5 140.995 241.123 145.795 234.691 145.795Z" fill="black"/>
<path d="M312.6 151.651L327 116.035C327.576 114.499 327 114.019 325.464 114.019H319.608C318.36 114.019 317.592 114.499 317.208 115.651L307.32 142.819L297.432 115.651C296.952 114.403 296.28 114.019 294.936 114.019H288.6C287.064 114.019 286.488 114.595 287.064 116.035L301.368 151.651C301.752 152.515 302.328 152.899 303.192 152.899H310.872C311.832 152.899 312.312 152.419 312.6 151.651Z" fill="black"/>
<path d="M335.74 108.859C339.004 108.859 341.5 106.363 341.5 103.099C341.5 99.9309 339.004 97.4349 335.74 97.4349C332.572 97.4349 330.076 99.9309 330.076 103.099C330.076 106.363 332.572 108.859 335.74 108.859ZM331.036 151.651C331.036 152.419 331.612 152.899 332.284 152.899H339.388C340.156 152.899 340.636 152.419 340.636 151.651V115.267C340.636 114.499 340.156 114.019 339.388 114.019H332.284C331.612 114.019 331.036 114.499 331.036 115.267V151.651Z" fill="black"/>
<path d="M360.56 140.323V121.795H371.12C371.888 121.795 372.368 121.315 372.368 120.643V115.267C372.368 114.499 371.888 114.019 371.12 114.019H360.56V103.747C360.56 102.979 360.08 102.499 359.312 102.499H352.208C351.44 102.499 350.96 102.979 350.96 103.747V114.019H345.968C345.2 114.019 344.72 114.499 344.72 115.267V120.643C344.72 121.315 345.2 121.795 345.968 121.795H350.96V140.995C350.96 149.827 355.088 153.859 363.44 153.859C367.28 153.859 370.832 152.995 373.424 151.555C374.288 151.075 374.384 150.691 374 149.827L372.272 145.123C371.888 144.163 371.408 143.971 370.448 144.547C368.912 145.315 366.992 145.891 364.976 145.891C361.904 145.891 360.56 143.971 360.56 140.323Z" fill="black"/>
<path d="M381.644 170.064C384.62 170.064 386.252 169.296 388.652 162.672L391.979 154C391.5 153 390.38 150.576 389.996 149.712L375.596 116.016C375.02 114.576 375.692 114 377.132 114H383.468C384.812 114 385.58 114.288 385.964 115.632L396.236 141.84L405.932 115.344C406.22 114.384 406.796 114 408.044 114H414.188C415.436 114 415.82 114.48 415.34 115.632L396.044 166.32C392.492 175.728 388.46 177.744 382.316 177.744C379.532 177.744 375.596 176.784 373.004 175.632C371.948 175.152 371.852 174.768 372.14 173.904L373.964 169.104C374.348 168.144 374.828 168.048 375.884 168.432C377.324 169.104 379.82 170.064 381.644 170.064Z" fill="black"/>
<path fill-rule="evenodd" clip-rule="evenodd" d="M273 133.399V151.899C273 152.451 273.448 152.899 274 152.899H277.5H281C281.552 152.899 282 152.451 282 151.899V133.399V114.899C282 114.347 281.552 113.899 281 113.899H277.5H274C273.448 113.899 273 114.347 273 114.899V133.399Z" fill="black"/>
<path d="M174.506 31L180.006 63L199.506 86.5L223.506 90L254.006 94.5L268.506 86.5L276.006 67L272.506 63L249 37L178.006 21.5L174.506 31Z" fill="#03BA6D"/>
<path d="M277.006 109.5L264.506 103L278.006 82.5L287.506 76L324.006 71L337.006 74.5L325.506 100L302.006 104.5L277.006 109.5Z" fill="#00FF85"/>
<path d="M266.474 153H259.506C258.954 153 258.506 152.567 258.502 152.014C258.396 137.237 256.062 99.4436 258.506 97C175.506 119 160.006 57 167.506 15C188.976 17.367 295.569 36.4819 273.023 74C256.733 94.1223 209.211 68.8453 199.108 42.4558C198.745 41.5067 199.871 40.8424 200.604 41.5461C218.788 58.9991 240.109 71.8846 259.639 71.1691C261.096 71.1157 262.264 69.9312 262.162 68.4767C260.527 45.0402 211.379 31.8976 179.506 29C175.751 71.2448 197.113 98.5076 254.042 88.0787C261.723 86.6716 268.671 82.7766 275.565 79.108C289.337 71.7784 312.97 64.1035 342.506 67.4776C331.172 116.286 301.884 109.704 274.235 109.504C273.606 109.5 273.135 108.918 273.292 108.309C277.471 92.1623 300.308 87.4783 312.87 85.1801C313.989 84.9755 314.384 86.1973 313.341 86.6512C303.721 90.84 286.333 98.0903 287.506 102C313.006 106 326.062 95.3498 333.522 75.0968C263.021 75.9935 265.96 104.581 267.473 151.959C267.491 152.523 267.039 153 266.474 153Z" fill="black"/>
</svg>
