<svg width="162" height="82" viewBox="0 0 162 82" fill="none" xmlns="http://www.w3.org/2000/svg">
<path d="M113.89 19.1205L95.6913 14.2916" stroke="#FF7263" stroke-width="6"/>
<path d="M113.571 11.6854L107.668 4.10834" stroke="#FF7263" stroke-width="6"/>
<path d="M136.5 57.5H147.5L148.5 48L150.116 40.567C150.7 37.8795 151.783 35.3254 153.309 33.037L155.591 29.6133C157.162 27.2573 158 24.489 158 21.6573V21.6573C158 19.2575 157.398 16.896 156.249 14.7892L156.083 14.4851C155.365 13.1685 154.452 11.9525 153.392 10.8921V10.8921C150.581 8.08116 146.802 6.39008 142.831 6.19156L139 6L134.001 6.2631C131.062 6.41781 128.228 7.40893 125.832 9.11982L125.685 9.22464C123.598 10.7158 121.935 12.725 120.86 15.0544V15.0544C119.964 16.995 119.5 19.1069 119.5 21.2442V22" stroke="url(#paint0_linear_101_2)" stroke-width="6"/>
<path d="M66.1105 60.5L71.7605 24.75H85.1105L81.0605 50.3H93.1105L91.5105 60.5H66.1105ZM94.7469 60.5L100.397 24.75H113.847L108.197 60.5H94.7469ZM119.478 60.5L123.478 34.95H114.828L116.478 24.75H147.178L145.528 34.95H136.878L132.878 60.5H119.478Z" fill="#444444"/>
<path d="M19.1571 60.49C8.18115 60.49 2.05615 53.483 2.05615 42.703V42.311C2.05615 31.776 9.30815 24.426 19.0591 24.426C27.0951 24.426 33.3181 28.444 34.1021 36.676H27.4871C26.7521 32.021 24.1551 29.62 19.1081 29.62C12.9341 29.62 8.91615 34.422 8.91615 42.262V42.654C8.91615 50.543 12.6891 55.198 19.1571 55.198C24.0081 55.198 27.4381 52.748 28.1241 47.799H34.4941C33.4651 56.227 27.4871 60.49 19.1571 60.49ZM50.8215 60.49C41.2665 60.49 37.2485 55.737 36.7585 49.122H43.0305C43.4715 52.65 44.8925 55.59 50.8215 55.59C54.6925 55.59 57.4365 53.434 57.4365 50.2C57.4365 46.966 55.8195 45.741 50.1355 44.81C41.7565 43.683 37.7875 41.135 37.7875 34.569C37.7875 28.836 42.6875 24.524 49.9885 24.524C57.5345 24.524 62.0425 27.954 62.7285 34.667H56.7505C56.1135 30.992 54.0065 29.424 49.9885 29.424C46.0195 29.424 43.9615 31.335 43.9615 34.03C43.9615 36.872 45.1375 38.293 51.2135 39.175C59.4455 40.302 63.7085 42.654 63.7085 49.661C63.7085 55.737 58.5635 60.49 50.8215 60.49Z" fill="url(#paint1_linear_101_2)"/>
<path d="M21.2555 76.126C20.5555 76.126 20.0095 75.58 20.0095 74.894C20.0095 74.222 20.5555 73.676 21.2555 73.676C21.9695 73.676 22.5155 74.222 22.5155 74.894C22.5155 75.58 21.9695 76.126 21.2555 76.126ZM136.731 76.126C136.031 76.126 135.485 75.58 135.485 74.894C135.485 74.222 136.031 73.676 136.731 73.676C137.445 73.676 137.991 74.222 137.991 74.894C137.991 75.58 137.445 76.126 136.731 76.126Z" fill="#5B5B5B"/>
<path d="M31.3096 79V68.99H33.1716V77.516H37.4416V79H31.3096ZM41.0225 79V71.678H42.7165V79H41.0225ZM41.8485 70.474C41.2885 70.474 40.8405 70.054 40.8405 69.508C40.8405 68.948 41.2885 68.528 41.8485 68.528C42.4085 68.528 42.8565 68.948 42.8565 69.508C42.8565 70.054 42.4085 70.474 41.8485 70.474ZM46.8813 79V68.29H48.5753V74.898L51.1933 71.678H53.0413L50.1993 75.038L53.2793 79H51.3193L48.5753 75.402V79H46.8813ZM59.4064 79.14C57.2504 79.14 55.6964 77.726 55.6964 75.416V75.304C55.6964 73.036 57.2504 71.524 59.3364 71.524C61.1564 71.524 62.7944 72.602 62.7944 75.22V75.71H57.4324C57.4884 77.096 58.1884 77.88 59.4484 77.88C60.4704 77.88 61.0024 77.474 61.1284 76.76H62.7664C62.5284 78.3 61.2824 79.14 59.4064 79.14ZM57.4604 74.576H61.1144C61.0304 73.316 60.3864 72.756 59.3364 72.756C58.3144 72.756 57.6284 73.442 57.4604 74.576ZM72.0394 79V68.99H73.9154V79H72.0394ZM76.964 72.504L75.97 72.056L77.174 68.822L78.7 69.424L76.964 72.504ZM80.5109 79V71.678H82.2049V72.798C82.5549 72.112 83.3529 71.524 84.4309 71.524C85.3829 71.524 86.1389 71.93 86.5029 72.84C87.0629 71.93 88.0709 71.524 88.9809 71.524C90.3249 71.524 91.4169 72.35 91.4169 74.366V79H89.7229V74.478C89.7229 73.4 89.2609 72.938 88.4209 72.938C87.5809 72.938 86.8109 73.498 86.8109 74.618V79H85.1169V74.478C85.1169 73.4 84.6409 72.938 83.8149 72.938C82.9749 72.938 82.2049 73.498 82.2049 74.618V79H80.5109ZM103.04 79V70.46H100.254V68.99H107.702V70.46H104.916V79H103.04ZM113.328 79.14C111.172 79.14 109.618 77.726 109.618 75.416V75.304C109.618 73.036 111.172 71.524 113.258 71.524C115.078 71.524 116.716 72.602 116.716 75.22V75.71H111.354C111.41 77.096 112.11 77.88 113.37 77.88C114.392 77.88 114.924 77.474 115.05 76.76H116.688C116.45 78.3 115.204 79.14 113.328 79.14ZM111.382 74.576H115.036C114.952 73.316 114.308 72.756 113.258 72.756C112.236 72.756 111.55 73.442 111.382 74.576ZM120.329 79V71.678H122.023V72.84C122.373 72.126 123.185 71.524 124.389 71.524C125.859 71.524 126.895 72.378 126.895 74.394V79H125.201V74.548C125.201 73.442 124.753 72.938 123.745 72.938C122.793 72.938 122.023 73.526 122.023 74.688V79H120.329Z" fill="#5B5B5B"/>
<defs>
<linearGradient id="paint0_linear_101_2" x1="161.967" y1="1.66312" x2="120.747" y2="65.1605" gradientUnits="userSpaceOnUse">
<stop stop-color="white"/>
<stop offset="0.141308" stop-color="#FBD090"/>
<stop offset="0.370484" stop-color="#FF7263"/>
<stop offset="1" stop-color="#444444"/>
</linearGradient>
<linearGradient id="paint1_linear_101_2" x1="39.55" y1="25" x2="37.8094" y2="59.0286" gradientUnits="userSpaceOnUse">
<stop stop-color="#444444"/>
<stop offset="1" stop-color="#8C8C8C"/>
</linearGradient>
</defs>
</svg>
