<svg width="103" height="35" viewBox="0 0 103 35" fill="none" xmlns="http://www.w3.org/2000/svg">
<path d="M69 23L65 22L66 11L73 11.5L74 20L69 23Z" fill="#23212C"/>
<path d="M81.5 22.5C81 20.8333 75.5001 17 75 15.5C74.5 14 86.1667 11.1667 88 11L87.5 20L86 22.5H81.5Z" fill="#23212C"/>
<mask id="path-3-outside-1_443_5" maskUnits="userSpaceOnUse" x="57" y="1" width="45" height="33" fill="black">
<rect fill="white" x="57" y="1" width="45" height="33"/>
<path d="M67.3725 12.625L63.9194 32.5H58.7788L62.8413 9.09375H67.6069L67.3725 12.625ZM76.5913 17.25L76.5444 17.5781C76.4298 18.599 76.1954 19.6302 75.8413 20.6719C75.4975 21.7135 75.0235 22.6667 74.4194 23.5312C73.8256 24.3958 73.086 25.0885 72.2006 25.6094C71.3152 26.1198 70.2735 26.3594 69.0756 26.3281C68.0235 26.2969 67.1642 26.0052 66.4975 25.4531C65.8308 24.8906 65.31 24.1823 64.935 23.3281C64.5704 22.4635 64.3152 21.5521 64.1694 20.5938C64.034 19.625 63.9767 18.724 63.9975 17.8906L64.0444 17.4375C64.2006 16.5208 64.461 15.5521 64.8256 14.5312C65.1902 13.5104 65.6694 12.5625 66.2631 11.6875C66.8569 10.8021 67.5704 10.0885 68.4038 9.54688C69.2371 8.99479 70.2058 8.73438 71.31 8.76562C72.4663 8.79688 73.4142 9.07292 74.1538 9.59375C74.8933 10.1042 75.4558 10.776 75.8413 11.6094C76.2267 12.4323 76.4715 13.3385 76.5756 14.3281C76.6798 15.3177 76.685 16.2917 76.5913 17.25ZM71.4194 17.5625L71.4506 17.2344C71.4819 16.8594 71.5079 16.4271 71.5288 15.9375C71.5496 15.4479 71.5183 14.9688 71.435 14.5C71.3621 14.0312 71.1902 13.6406 70.9194 13.3281C70.659 13.0052 70.2579 12.8333 69.7163 12.8125C69.0808 12.7812 68.5496 12.8802 68.1225 13.1094C67.6954 13.3385 67.3465 13.6562 67.0756 14.0625C66.8152 14.4688 66.6121 14.9271 66.4663 15.4375C66.3204 15.9375 66.2163 16.4531 66.1538 16.9844L66.0131 18.2656C65.9402 18.8594 65.9246 19.4635 65.9663 20.0781C66.0079 20.6823 66.185 21.1927 66.4975 21.6094C66.8204 22.026 67.3621 22.2448 68.1225 22.2656C68.7267 22.276 69.2267 22.1302 69.6225 21.8281C70.0288 21.526 70.3517 21.1302 70.5913 20.6406C70.8413 20.151 71.0288 19.6354 71.1538 19.0938C71.2788 18.5417 71.3673 18.0312 71.4194 17.5625ZM85.3425 21.75L86.4363 14.7188C86.4779 14.3438 86.4727 13.9844 86.4206 13.6406C86.379 13.2969 86.2488 13.0156 86.03 12.7969C85.8217 12.5677 85.4935 12.4479 85.0456 12.4375C84.6394 12.4271 84.2956 12.5 84.0144 12.6562C83.7331 12.8125 83.5092 13.0312 83.3425 13.3125C83.1758 13.5938 83.056 13.9167 82.9831 14.2812L77.8269 14.3125C77.8685 13.3333 78.129 12.4896 78.6081 11.7812C79.0873 11.0729 79.7019 10.4948 80.4519 10.0469C81.2019 9.59896 82.0196 9.27083 82.905 9.0625C83.8008 8.85417 84.681 8.76042 85.5456 8.78125C86.7331 8.80208 87.806 9.05208 88.7644 9.53125C89.7331 10 90.4779 10.6823 90.9988 11.5781C91.53 12.4635 91.7331 13.5417 91.6081 14.8125L90.4988 21.75C90.405 22.375 90.3217 23.0417 90.2488 23.75C90.1758 24.4479 90.28 25.099 90.5613 25.7031L90.5456 26L85.53 26.0156C85.3008 25.3385 85.1863 24.6354 85.1863 23.9062C85.1863 23.1771 85.2383 22.4583 85.3425 21.75ZM87.0144 15.6719L86.5456 18.4844L84.53 18.4688C84.1342 18.4792 83.754 18.5469 83.3894 18.6719C83.0352 18.7865 82.7175 18.9531 82.4363 19.1719C82.155 19.3906 81.9206 19.6615 81.7331 19.9844C81.556 20.3073 81.4415 20.6771 81.3894 21.0938C81.3477 21.375 81.3685 21.6302 81.4519 21.8594C81.5456 22.0781 81.6863 22.2552 81.8738 22.3906C82.0717 22.526 82.3165 22.599 82.6081 22.6094C83.056 22.6198 83.4883 22.5365 83.905 22.3594C84.3217 22.1823 84.681 21.9323 84.9831 21.6094C85.2956 21.2865 85.5092 20.9115 85.6238 20.4844L86.53 22.6875C86.2592 23.2292 85.9467 23.724 85.5925 24.1719C85.2488 24.6198 84.8581 25.0104 84.4206 25.3438C83.9935 25.6667 83.5144 25.9167 82.9831 26.0938C82.4519 26.2708 81.8633 26.3542 81.2175 26.3438C80.2904 26.3229 79.4363 26.099 78.655 25.6719C77.8738 25.2448 77.254 24.6615 76.7956 23.9219C76.3373 23.1823 76.1238 22.3281 76.155 21.3594C76.1967 20.2344 76.4727 19.3021 76.9831 18.5625C77.4935 17.8229 78.155 17.2448 78.9675 16.8281C79.7904 16.401 80.681 16.099 81.6394 15.9219C82.6081 15.7448 83.5665 15.6562 84.5144 15.6562L87.0144 15.6719ZM100.859 2L96.7031 26H91.5469L95.7031 2H100.859Z"/>
</mask>
<path d="M67.3725 12.625L63.9194 32.5H58.7788L62.8413 9.09375H67.6069L67.3725 12.625ZM76.5913 17.25L76.5444 17.5781C76.4298 18.599 76.1954 19.6302 75.8413 20.6719C75.4975 21.7135 75.0235 22.6667 74.4194 23.5312C73.8256 24.3958 73.086 25.0885 72.2006 25.6094C71.3152 26.1198 70.2735 26.3594 69.0756 26.3281C68.0235 26.2969 67.1642 26.0052 66.4975 25.4531C65.8308 24.8906 65.31 24.1823 64.935 23.3281C64.5704 22.4635 64.3152 21.5521 64.1694 20.5938C64.034 19.625 63.9767 18.724 63.9975 17.8906L64.0444 17.4375C64.2006 16.5208 64.461 15.5521 64.8256 14.5312C65.1902 13.5104 65.6694 12.5625 66.2631 11.6875C66.8569 10.8021 67.5704 10.0885 68.4038 9.54688C69.2371 8.99479 70.2058 8.73438 71.31 8.76562C72.4663 8.79688 73.4142 9.07292 74.1538 9.59375C74.8933 10.1042 75.4558 10.776 75.8413 11.6094C76.2267 12.4323 76.4715 13.3385 76.5756 14.3281C76.6798 15.3177 76.685 16.2917 76.5913 17.25ZM71.4194 17.5625L71.4506 17.2344C71.4819 16.8594 71.5079 16.4271 71.5288 15.9375C71.5496 15.4479 71.5183 14.9688 71.435 14.5C71.3621 14.0312 71.1902 13.6406 70.9194 13.3281C70.659 13.0052 70.2579 12.8333 69.7163 12.8125C69.0808 12.7812 68.5496 12.8802 68.1225 13.1094C67.6954 13.3385 67.3465 13.6562 67.0756 14.0625C66.8152 14.4688 66.6121 14.9271 66.4663 15.4375C66.3204 15.9375 66.2163 16.4531 66.1538 16.9844L66.0131 18.2656C65.9402 18.8594 65.9246 19.4635 65.9663 20.0781C66.0079 20.6823 66.185 21.1927 66.4975 21.6094C66.8204 22.026 67.3621 22.2448 68.1225 22.2656C68.7267 22.276 69.2267 22.1302 69.6225 21.8281C70.0288 21.526 70.3517 21.1302 70.5913 20.6406C70.8413 20.151 71.0288 19.6354 71.1538 19.0938C71.2788 18.5417 71.3673 18.0312 71.4194 17.5625ZM85.3425 21.75L86.4363 14.7188C86.4779 14.3438 86.4727 13.9844 86.4206 13.6406C86.379 13.2969 86.2488 13.0156 86.03 12.7969C85.8217 12.5677 85.4935 12.4479 85.0456 12.4375C84.6394 12.4271 84.2956 12.5 84.0144 12.6562C83.7331 12.8125 83.5092 13.0312 83.3425 13.3125C83.1758 13.5938 83.056 13.9167 82.9831 14.2812L77.8269 14.3125C77.8685 13.3333 78.129 12.4896 78.6081 11.7812C79.0873 11.0729 79.7019 10.4948 80.4519 10.0469C81.2019 9.59896 82.0196 9.27083 82.905 9.0625C83.8008 8.85417 84.681 8.76042 85.5456 8.78125C86.7331 8.80208 87.806 9.05208 88.7644 9.53125C89.7331 10 90.4779 10.6823 90.9988 11.5781C91.53 12.4635 91.7331 13.5417 91.6081 14.8125L90.4988 21.75C90.405 22.375 90.3217 23.0417 90.2488 23.75C90.1758 24.4479 90.28 25.099 90.5613 25.7031L90.5456 26L85.53 26.0156C85.3008 25.3385 85.1863 24.6354 85.1863 23.9062C85.1863 23.1771 85.2383 22.4583 85.3425 21.75ZM87.0144 15.6719L86.5456 18.4844L84.53 18.4688C84.1342 18.4792 83.754 18.5469 83.3894 18.6719C83.0352 18.7865 82.7175 18.9531 82.4363 19.1719C82.155 19.3906 81.9206 19.6615 81.7331 19.9844C81.556 20.3073 81.4415 20.6771 81.3894 21.0938C81.3477 21.375 81.3685 21.6302 81.4519 21.8594C81.5456 22.0781 81.6863 22.2552 81.8738 22.3906C82.0717 22.526 82.3165 22.599 82.6081 22.6094C83.056 22.6198 83.4883 22.5365 83.905 22.3594C84.3217 22.1823 84.681 21.9323 84.9831 21.6094C85.2956 21.2865 85.5092 20.9115 85.6238 20.4844L86.53 22.6875C86.2592 23.2292 85.9467 23.724 85.5925 24.1719C85.2488 24.6198 84.8581 25.0104 84.4206 25.3438C83.9935 25.6667 83.5144 25.9167 82.9831 26.0938C82.4519 26.2708 81.8633 26.3542 81.2175 26.3438C80.2904 26.3229 79.4363 26.099 78.655 25.6719C77.8738 25.2448 77.254 24.6615 76.7956 23.9219C76.3373 23.1823 76.1238 22.3281 76.155 21.3594C76.1967 20.2344 76.4727 19.3021 76.9831 18.5625C77.4935 17.8229 78.155 17.2448 78.9675 16.8281C79.7904 16.401 80.681 16.099 81.6394 15.9219C82.6081 15.7448 83.5665 15.6562 84.5144 15.6562L87.0144 15.6719ZM100.859 2L96.7031 26H91.5469L95.7031 2H100.859Z" fill="#00F5A0"/>
<path d="M67.3725 12.625L68.3577 12.7962C68.3638 12.7614 68.368 12.7264 68.3703 12.6912L67.3725 12.625ZM63.9194 32.5V33.5C64.4056 33.5 64.8214 33.1502 64.9046 32.6712L63.9194 32.5ZM58.7788 32.5L57.7935 32.329C57.743 32.6198 57.8236 32.918 58.0136 33.1438C58.2036 33.3696 58.4836 33.5 58.7788 33.5V32.5ZM62.8413 9.09375V8.09375C62.3549 8.09375 61.9391 8.4436 61.856 8.92274L62.8413 9.09375ZM67.6069 9.09375L68.6047 9.15998C68.623 8.88386 68.5261 8.6125 68.337 8.41046C68.1479 8.20841 67.8836 8.09375 67.6069 8.09375V9.09375ZM76.5913 17.25L77.5812 17.3914C77.5833 17.3768 77.5851 17.3621 77.5865 17.3474L76.5913 17.25ZM76.5444 17.5781L75.5544 17.4367C75.553 17.4466 75.5517 17.4566 75.5506 17.4666L76.5444 17.5781ZM75.8413 20.6719L74.8944 20.35L74.8916 20.3585L75.8413 20.6719ZM74.4194 23.5312L73.5997 22.9584L73.595 22.9651L74.4194 23.5312ZM72.2006 25.6094L72.7001 26.4758L72.7076 26.4713L72.2006 25.6094ZM69.0756 26.3281L69.0459 27.3277L69.0495 27.3278L69.0756 26.3281ZM66.4975 25.4531L65.8526 26.2174L65.8597 26.2233L66.4975 25.4531ZM64.935 23.3281L64.0136 23.7167C64.0155 23.7212 64.0174 23.7257 64.0194 23.7301L64.935 23.3281ZM64.1694 20.5938L63.1789 20.7322L63.1808 20.7442L64.1694 20.5938ZM63.9975 17.8906L63.0028 17.7877C63.0001 17.8136 62.9985 17.8396 62.9978 17.8656L63.9975 17.8906ZM64.0444 17.4375L63.0586 17.2695C63.0549 17.2911 63.0519 17.3128 63.0497 17.3346L64.0444 17.4375ZM66.2631 11.6875L67.0906 12.249L67.0937 12.2445L66.2631 11.6875ZM68.4038 9.54688L68.9488 10.3854L68.956 10.3805L68.4038 9.54688ZM71.31 8.76562L71.2817 9.76523L71.283 9.76526L71.31 8.76562ZM74.1538 9.59375L73.5779 10.4114L73.5857 10.4168L74.1538 9.59375ZM75.8413 11.6094L74.9336 12.0292L74.9357 12.0335L75.8413 11.6094ZM71.4194 17.5625L72.4133 17.6729C72.4138 17.6677 72.4144 17.6625 72.4149 17.6573L71.4194 17.5625ZM71.4506 17.2344L72.4462 17.3292L72.4472 17.3174L71.4506 17.2344ZM71.435 14.5L70.4469 14.6537C70.448 14.6608 70.4492 14.6679 70.4504 14.675L71.435 14.5ZM70.9194 13.3281L70.141 13.9559C70.1484 13.9651 70.156 13.9741 70.1637 13.9831L70.9194 13.3281ZM69.7163 12.8125L69.6671 13.8113L69.6778 13.8118L69.7163 12.8125ZM68.1225 13.1094L67.6497 12.2282L68.1225 13.1094ZM67.0756 14.0625L66.2436 13.5078C66.2403 13.5128 66.237 13.5178 66.2337 13.5228L67.0756 14.0625ZM66.4663 15.4375L67.4263 15.7175L67.4278 15.7122L66.4663 15.4375ZM66.1538 16.9844L65.1606 16.8675L65.1597 16.8753L66.1538 16.9844ZM66.0131 18.2656L67.0058 18.3875L67.0072 18.3747L66.0131 18.2656ZM65.9663 20.0781L64.9685 20.1458L64.9686 20.1469L65.9663 20.0781ZM66.4975 21.6094L65.6975 22.2094C65.7007 22.2136 65.7039 22.2178 65.7071 22.2219L66.4975 21.6094ZM68.1225 22.2656L68.0951 23.2653L68.1053 23.2655L68.1225 22.2656ZM69.6225 21.8281L69.0258 21.0256L69.0158 21.0332L69.6225 21.8281ZM70.5913 20.6406L69.7006 20.1858C69.6981 20.1909 69.6955 20.196 69.693 20.2011L70.5913 20.6406ZM71.1538 19.0938L72.1282 19.3186L72.1291 19.3146L71.1538 19.0938ZM66.3873 12.4538L62.9341 32.3288L64.9046 32.6712L68.3577 12.7962L66.3873 12.4538ZM63.9194 31.5H58.7788V33.5H63.9194V31.5ZM59.764 32.671L63.8265 9.26476L61.856 8.92274L57.7935 32.329L59.764 32.671ZM62.8413 10.0938H67.6069V8.09375H62.8413V10.0938ZM66.6091 9.02752L66.3747 12.5588L68.3703 12.6912L68.6047 9.15998L66.6091 9.02752ZM75.6013 17.1086L75.5544 17.4367L77.5343 17.7195L77.5812 17.3914L75.6013 17.1086ZM75.5506 17.4666C75.4446 18.4109 75.2271 19.3717 74.8945 20.35L76.788 20.9938C77.1638 19.8887 77.415 18.787 77.5381 17.6897L75.5506 17.4666ZM74.8916 20.3585C74.5771 21.3115 74.146 22.1767 73.5997 22.9585L75.2391 24.104C75.9011 23.1566 76.4179 22.1155 76.7909 20.9853L74.8916 20.3585ZM73.595 22.9651C73.0823 23.7117 72.4502 24.3024 71.6936 24.7474L72.7076 26.4713C73.7219 25.8747 74.5689 25.08 75.2437 24.0974L73.595 22.9651ZM71.7012 24.743C71.0011 25.1466 70.1477 25.3558 69.1017 25.3285L69.0495 27.3278C70.3994 27.363 71.6293 27.093 72.7001 26.4757L71.7012 24.743ZM69.1053 25.3286C68.2264 25.3025 67.5959 25.0643 67.1353 24.6829L65.8597 26.2233C66.7324 26.9461 67.8207 27.2913 69.0459 27.3277L69.1053 25.3286ZM67.1424 24.6888C66.6005 24.2316 66.1686 23.6504 65.8506 22.9261L64.0194 23.7301C64.4514 24.7142 65.0612 25.5497 65.8526 26.2174L67.1424 24.6888ZM65.8564 22.9396C65.5251 22.1538 65.2918 21.3225 65.158 20.4433L63.1808 20.7442C63.3386 21.7817 63.6158 22.7733 64.0136 23.7167L65.8564 22.9396ZM65.1597 20.4553C65.0306 19.5317 64.9779 18.6859 64.9972 17.9156L62.9978 17.8656C62.9754 18.762 63.0373 19.7183 63.179 20.7322L65.1597 20.4553ZM64.9922 17.9935L65.0391 17.5404L63.0497 17.3346L63.0028 17.7877L64.9922 17.9935ZM65.0302 17.6055C65.1752 16.7546 65.4192 15.8424 65.7674 14.8676L63.8839 14.1949C63.5029 15.2617 63.2261 16.2871 63.0586 17.2695L65.0302 17.6055ZM65.7674 14.8676C66.1042 13.9243 66.5455 13.0523 67.0906 12.249L65.4357 11.126C64.7933 12.0727 64.2762 13.0965 63.8839 14.1949L65.7674 14.8676ZM67.0937 12.2445C67.6177 11.4629 68.2367 10.8482 68.9487 10.3853L67.8588 8.70843C66.9042 9.32891 66.096 10.1412 65.4326 11.1305L67.0937 12.2445ZM68.956 10.3805C69.5996 9.95416 70.3609 9.73916 71.2817 9.76522L71.3383 7.76603C70.0508 7.72959 68.8746 8.03542 67.8515 8.71323L68.956 10.3805ZM71.283 9.76526C72.2969 9.79266 73.0389 10.0317 73.578 10.4114L74.7295 8.77614C73.7895 8.11414 72.6356 7.80109 71.337 7.76599L71.283 9.76526ZM73.5857 10.4168C74.1748 10.8233 74.6216 11.3545 74.9336 12.0292L76.7489 11.1896C76.2901 10.1976 75.6119 9.38505 74.7218 8.77072L73.5857 10.4168ZM74.9357 12.0335C75.2696 12.7465 75.4875 13.5434 75.5811 14.4328L77.5701 14.2234C77.4554 13.1337 77.1837 12.1181 76.7468 11.1852L74.9357 12.0335ZM75.5811 14.4328C75.6785 15.3575 75.683 16.2637 75.596 17.1526L77.5865 17.3474C77.687 16.3196 77.6811 15.2779 77.5701 14.2234L75.5811 14.4328ZM72.4149 17.6573L72.4461 17.3292L70.4551 17.1396L70.4239 17.4677L72.4149 17.6573ZM72.4472 17.3174C72.4798 16.9256 72.5066 16.4793 72.5278 15.98L70.5297 15.895C70.5092 16.3748 70.4839 16.7931 70.4541 17.1513L72.4472 17.3174ZM72.5278 15.98C72.5517 15.4197 72.516 14.8676 72.4196 14.325L70.4504 14.675C70.5206 15.0699 70.5475 15.4761 70.5297 15.895L72.5278 15.98ZM72.4231 14.3463C72.3257 13.7199 72.0862 13.1476 71.6751 12.6732L70.1637 13.9831C70.2942 14.1337 70.3985 14.3426 70.4469 14.6537L72.4231 14.3463ZM71.6978 12.7004C71.2042 12.0883 70.4909 11.8416 69.7547 11.8132L69.6778 13.8118C70.0249 13.8251 70.1138 13.9221 70.141 13.9559L71.6978 12.7004ZM69.7654 11.8137C69.0039 11.7763 68.2795 11.8903 67.6497 12.2282L68.5953 13.9905C68.8197 13.8701 69.1578 13.7862 69.6671 13.8113L69.7654 11.8137ZM67.6497 12.2282C67.0768 12.5356 66.6048 12.9659 66.2436 13.5078L67.9077 14.6172C68.0881 14.3466 68.3141 14.1414 68.5953 13.9905L67.6497 12.2282ZM66.2337 13.5228C65.9158 14.0189 65.6747 14.568 65.5047 15.1628L67.4278 15.7122C67.5495 15.2862 67.7146 14.9186 67.9175 14.6022L66.2337 13.5228ZM65.5063 15.1575C65.3444 15.7123 65.2294 16.2826 65.1606 16.8675L67.1469 17.1012C67.2031 16.6237 67.2964 16.1627 67.4263 15.7175L65.5063 15.1575ZM65.1597 16.8753L65.0191 18.1565L67.0072 18.3747L67.1478 17.0935L65.1597 16.8753ZM65.0206 18.1437C64.9397 18.8022 64.9227 19.4699 64.9685 20.1458L66.964 20.0105C66.9265 19.4572 66.9407 18.9166 67.0057 18.3875L65.0206 18.1437ZM64.9686 20.1469C65.0214 20.9115 65.2514 21.6146 65.6975 22.2094L67.2975 21.0094C67.1186 20.7708 66.9945 20.4531 66.9639 20.0093L64.9686 20.1469ZM65.7071 22.2219C66.2838 22.9661 67.1727 23.24 68.0951 23.2652L68.1499 21.266C67.5514 21.2496 67.357 21.086 67.2879 20.9968L65.7071 22.2219ZM68.1053 23.2655C68.885 23.2789 69.6186 23.0891 70.2292 22.6231L69.0158 21.0332C68.8348 21.1714 68.5684 21.2732 68.1397 21.2658L68.1053 23.2655ZM70.2192 22.6306C70.7632 22.2261 71.1853 21.7018 71.4895 21.0802L69.693 20.2011C69.5181 20.5586 69.2944 20.826 69.0258 21.0257L70.2192 22.6306ZM71.4819 21.0954C71.7695 20.5321 71.9849 19.9392 72.1281 19.3186L70.1794 18.8689C70.0726 19.3317 69.913 19.77 69.7006 20.1858L71.4819 21.0954ZM72.1291 19.3146C72.2607 18.733 72.3563 18.1853 72.4133 17.6729L70.4255 17.4521C70.3783 17.8772 70.2968 18.3503 70.1784 18.8729L72.1291 19.3146ZM85.3425 21.75L84.3544 21.5963L84.3531 21.6045L85.3425 21.75ZM86.4363 14.7188L87.4244 14.8725C87.4266 14.8581 87.4285 14.8436 87.4301 14.8292L86.4363 14.7188ZM86.4206 13.6406L85.4279 13.761C85.4291 13.7708 85.4304 13.7806 85.4319 13.7904L86.4206 13.6406ZM86.03 12.7969L85.2901 13.4695C85.3007 13.4813 85.3117 13.4928 85.3229 13.504L86.03 12.7969ZM85.0456 12.4375L85.02 13.4372L85.0224 13.4372L85.0456 12.4375ZM82.9831 14.2812L82.9892 15.2812C83.4636 15.2784 83.8707 14.9426 83.9637 14.4774L82.9831 14.2812ZM77.8269 14.3125L76.8278 14.27C76.8161 14.5434 76.9171 14.8096 77.107 15.0066C77.2969 15.2036 77.5593 15.3141 77.8329 15.3125L77.8269 14.3125ZM80.4519 10.0469L80.9646 10.9054L80.4519 10.0469ZM82.905 9.0625L82.6785 8.08849L82.676 8.08908L82.905 9.0625ZM85.5456 8.78125L85.5215 9.78098L85.5281 9.7811L85.5456 8.78125ZM88.7644 9.53125L88.3171 10.4258L88.3288 10.4314L88.7644 9.53125ZM90.9988 11.5781L90.1342 12.0808L90.1413 12.0926L90.9988 11.5781ZM91.6081 14.8125L92.5956 14.9704C92.5988 14.9505 92.6013 14.9305 92.6033 14.9104L91.6081 14.8125ZM90.4988 21.75L89.5112 21.5921L89.5098 21.6017L90.4988 21.75ZM90.2488 23.75L91.2433 23.8539L91.2435 23.8524L90.2488 23.75ZM90.5613 25.7031L91.5599 25.7557C91.5685 25.5923 91.5369 25.4294 91.4678 25.2811L90.5613 25.7031ZM90.5456 26L90.5487 27C91.0794 26.9983 91.5164 26.5825 91.5442 26.0526L90.5456 26ZM85.53 26.0156L84.5828 26.3362C84.7206 26.7434 85.1032 27.017 85.5331 27.0156L85.53 26.0156ZM87.0144 15.6719L88.0008 15.8363C88.0489 15.5474 87.968 15.2519 87.7794 15.0279C87.5908 14.8038 87.3135 14.6737 87.0206 14.6719L87.0144 15.6719ZM86.5456 18.4844L86.5379 19.4843C87.0296 19.4882 87.4512 19.1339 87.532 18.6488L86.5456 18.4844ZM84.53 18.4688L84.5378 17.4688C84.5264 17.4687 84.515 17.4688 84.5037 17.4691L84.53 18.4688ZM83.3894 18.6719L83.6972 19.6233C83.7027 19.6215 83.7082 19.6197 83.7137 19.6178L83.3894 18.6719ZM81.7331 19.9844L80.8683 19.4822C80.8642 19.4893 80.8602 19.4964 80.8563 19.5035L81.7331 19.9844ZM81.3894 21.0938L82.3786 21.2403C82.3797 21.2328 82.3807 21.2253 82.3817 21.2178L81.3894 21.0938ZM81.4519 21.8594L80.5121 22.2011C80.5185 22.2187 80.5254 22.2361 80.5327 22.2533L81.4519 21.8594ZM81.8738 22.3906L81.2883 23.2013C81.2951 23.2063 81.3021 23.2111 81.3091 23.2159L81.8738 22.3906ZM82.6081 22.6094L82.5724 23.6088L82.5849 23.6091L82.6081 22.6094ZM83.905 22.3594L84.2961 23.2797L83.905 22.3594ZM84.9831 21.6094L84.2645 20.914C84.2606 20.918 84.2567 20.9221 84.2529 20.9262L84.9831 21.6094ZM85.6238 20.4844L86.5486 20.104C86.3854 19.7074 85.9876 19.459 85.5597 19.4864C85.1318 19.5139 84.769 19.8111 84.6579 20.2252L85.6238 20.4844ZM86.53 22.6875L87.4244 23.1347C87.5537 22.8762 87.5648 22.5744 87.4548 22.3071L86.53 22.6875ZM85.5925 24.1719L84.8081 23.5516C84.8051 23.5554 84.8021 23.5592 84.7992 23.5631L85.5925 24.1719ZM84.4206 25.3438L85.0237 26.1414L85.0267 26.1392L84.4206 25.3438ZM81.2175 26.3438L81.195 27.3435L81.2014 27.3436L81.2175 26.3438ZM76.155 21.3594L75.1557 21.3224L75.1555 21.3271L76.155 21.3594ZM76.9831 18.5625L77.8062 19.1305L76.9831 18.5625ZM78.9675 16.8281L79.4238 17.718L79.4281 17.7157L78.9675 16.8281ZM81.6394 15.9219L81.4596 14.9382L81.4577 14.9385L81.6394 15.9219ZM84.5144 15.6562L84.5206 14.6562H84.5144V15.6562ZM86.3306 21.9037L87.4244 14.8725L85.4481 14.565L84.3544 21.5963L86.3306 21.9037ZM87.4301 14.8292C87.4806 14.3749 87.4755 13.9277 87.4093 13.4908L85.4319 13.7904C85.4699 14.041 85.4752 14.3126 85.4424 14.6083L87.4301 14.8292ZM87.4134 13.5203C87.3482 12.9825 87.1328 12.4855 86.7371 12.0898L85.3229 13.504C85.3647 13.5458 85.4097 13.6113 85.4279 13.761L87.4134 13.5203ZM86.7699 12.1242C86.3084 11.6165 85.667 11.4517 85.0689 11.4378L85.0224 13.4372C85.1665 13.4406 85.2475 13.4609 85.2847 13.4745C85.3165 13.4861 85.308 13.4892 85.2901 13.4695L86.7699 12.1242ZM85.0713 11.4378C84.5328 11.424 84.0022 11.519 83.5287 11.7821L84.5 13.5304C84.589 13.481 84.746 13.4301 85.02 13.4372L85.0713 11.4378ZM83.5287 11.7821C83.0899 12.0259 82.7377 12.3715 82.4822 12.8027L84.2028 13.8223C84.2806 13.691 84.3763 13.5991 84.5 13.5304L83.5287 11.7821ZM82.4822 12.8027C82.2507 13.1933 82.0946 13.6249 82.0025 14.0851L83.9637 14.4774C84.0175 14.2084 84.1009 13.9942 84.2028 13.8223L82.4822 12.8027ZM82.9771 13.2813L77.8208 13.3125L77.8329 15.3125L82.9892 15.2812L82.9771 13.2813ZM78.826 14.355C78.8609 13.5333 79.0755 12.8751 79.4364 12.3416L77.7798 11.2209C77.1824 12.1041 76.8761 13.1333 76.8278 14.27L78.826 14.355ZM79.4364 12.3416C79.8317 11.7572 80.3376 11.2799 80.9646 10.9054L79.9391 9.18833C79.0662 9.70969 78.3429 10.3886 77.7798 11.2209L79.4364 12.3416ZM80.9646 10.9054C81.6229 10.5123 82.3444 10.2217 83.134 10.0359L82.676 8.08908C81.6948 8.31995 80.7808 8.68565 79.9391 9.18833L80.9646 10.9054ZM83.1315 10.0365C83.9504 9.84606 84.7464 9.76228 85.5215 9.78096L85.5697 7.78154C84.6157 7.75855 83.6512 7.86227 82.6785 8.08849L83.1315 10.0365ZM85.5281 9.7811C86.5826 9.7996 87.5063 10.0202 88.3172 10.4257L89.2116 8.63682C88.1058 8.08393 86.8836 7.80457 85.5632 7.7814L85.5281 9.7811ZM88.3288 10.4314C89.1255 10.8169 89.7176 11.3641 90.1342 12.0807L91.8633 11.0755C91.2382 10.0005 90.3408 9.1831 89.1999 8.63109L88.3288 10.4314ZM90.1413 12.0926C90.5382 12.7541 90.722 13.606 90.6129 14.7146L92.6033 14.9104C92.7443 13.4774 92.5218 12.173 91.8562 11.0636L90.1413 12.0926ZM90.6207 14.6546L89.5113 21.5921L91.4862 21.9079L92.5956 14.9704L90.6207 14.6546ZM89.5098 21.6017C89.4135 22.2437 89.3283 22.9258 89.254 23.6476L91.2435 23.8524C91.315 23.1575 91.3965 22.5063 91.4877 21.8983L89.5098 21.6017ZM89.2542 23.6461C89.1635 24.5141 89.2929 25.348 89.6547 26.1252L91.4678 25.2811C91.2671 24.8499 91.1882 24.3817 91.2433 23.8539L89.2542 23.6461ZM89.5626 25.6506L89.547 25.9474L91.5442 26.0526L91.5599 25.7557L89.5626 25.6506ZM90.5425 25L85.5269 25.0156L85.5331 27.0156L90.5487 27L90.5425 25ZM86.4772 25.695C86.2837 25.1233 86.1863 24.5286 86.1863 23.9062H84.1863C84.1863 24.7422 84.318 25.5538 84.5828 26.3362L86.4772 25.695ZM86.1863 23.9062C86.1863 23.2249 86.2349 22.5548 86.3319 21.8955L84.3531 21.6045C84.2418 22.3619 84.1863 23.1293 84.1863 23.9062H86.1863ZM86.028 15.5075L85.5592 18.32L87.532 18.6488L88.0008 15.8363L86.028 15.5075ZM86.5534 17.4844L84.5378 17.4688L84.5222 19.4687L86.5379 19.4843L86.5534 17.4844ZM84.5037 17.4691C84.0092 17.4821 83.5283 17.5671 83.0651 17.7259L83.7137 19.6178C83.9796 19.5266 84.2592 19.4762 84.5563 19.4684L84.5037 17.4691ZM83.0816 17.7204C82.6217 17.8692 82.1995 18.0892 81.8223 18.3825L83.0502 19.9612C83.2355 19.8171 83.4487 19.7037 83.6972 19.6233L83.0816 17.7204ZM81.8223 18.3825C81.435 18.6838 81.1171 19.0538 80.8683 19.4822L82.5979 20.4865C82.7241 20.2691 82.875 20.0975 83.0502 19.9612L81.8223 18.3825ZM80.8563 19.5035C80.6107 19.9514 80.4627 20.4453 80.3971 20.9697L82.3817 21.2178C82.4203 20.9089 82.5014 20.6631 82.6099 20.4652L80.8563 19.5035ZM80.4002 20.9472C80.3382 21.3654 80.3632 21.7917 80.5121 22.2011L82.3917 21.5176C82.3739 21.4687 82.3572 21.3846 82.3786 21.2403L80.4002 20.9472ZM80.5327 22.2533C80.6957 22.6336 80.9494 22.9566 81.2883 23.2013L82.4592 21.5799C82.4231 21.5538 82.3955 21.5227 82.371 21.4655L80.5327 22.2533ZM81.3091 23.2159C81.6942 23.4794 82.1328 23.593 82.5724 23.6087L82.6438 21.61C82.5001 21.6049 82.4491 21.5726 82.4384 21.5653L81.3091 23.2159ZM82.5849 23.6091C83.1765 23.6229 83.75 23.5118 84.2961 23.2797L83.5139 21.439C83.2267 21.5611 82.9356 21.6167 82.6314 21.6096L82.5849 23.6091ZM84.2961 23.2797C84.838 23.0494 85.3137 22.7198 85.7134 22.2925L84.2529 20.9262C84.0483 21.1448 83.8053 21.3152 83.5139 21.439L84.2961 23.2797ZM85.7017 22.3048C86.1304 21.8619 86.4302 21.3374 86.5896 20.7435L84.6579 20.2252C84.5881 20.4855 84.4609 20.711 84.2645 20.914L85.7017 22.3048ZM84.6989 20.8648L85.6052 23.0679L87.4548 22.3071L86.5486 20.104L84.6989 20.8648ZM85.6356 22.2403C85.3935 22.7243 85.1173 23.1606 84.8081 23.5516L86.3769 24.7921C86.7761 24.2873 87.1248 23.734 87.4244 23.1347L85.6356 22.2403ZM84.7992 23.5631C84.5079 23.9426 84.1798 24.27 83.8146 24.5483L85.0267 26.1392C85.5364 25.7508 85.9896 25.297 86.3858 24.7807L84.7992 23.5631ZM83.8175 24.5461C83.4811 24.8004 83.0997 25.0008 82.6669 25.1451L83.2994 27.0424C83.929 26.8325 84.5059 26.5329 85.0237 26.1414L83.8175 24.5461ZM82.6669 25.1451C82.2578 25.2814 81.7836 25.3528 81.2336 25.3439L81.2014 27.3436C81.9431 27.3556 82.646 27.2602 83.2994 27.0424L82.6669 25.1451ZM81.24 25.344C80.466 25.3266 79.7696 25.1415 79.1347 24.7944L78.1753 26.5493C79.1029 27.0564 80.1148 27.3192 81.195 27.3435L81.24 25.344ZM79.1347 24.7944C78.5014 24.4482 78.0107 23.9842 77.6456 23.3951L75.9456 24.4486C76.4972 25.3387 77.2461 26.0413 78.1753 26.5493L79.1347 24.7944ZM77.6456 23.3951C77.3028 22.8418 77.1288 22.1867 77.1545 21.3916L75.1555 21.3271C75.1187 22.4696 75.3718 23.5228 75.9456 24.4486L77.6456 23.3951ZM77.1543 21.3964C77.1907 20.4137 77.4282 19.6782 77.8062 19.1305L76.1601 17.9945C75.5173 18.926 75.2026 20.0551 75.1557 21.3224L77.1543 21.3964ZM77.8062 19.1305C78.2212 18.5291 78.7558 18.0605 79.4238 17.7179L78.5112 15.9383C77.5542 16.4291 76.7659 17.1167 76.1601 17.9945L77.8062 19.1305ZM79.4281 17.7157C80.1589 17.3364 80.955 17.0653 81.8211 16.9052L81.4577 14.9385C80.4071 15.1326 79.4219 15.4656 78.5069 15.9405L79.4281 17.7157ZM81.8192 16.9056C82.7309 16.7389 83.6291 16.6562 84.5144 16.6562V14.6562C83.5039 14.6562 82.4853 14.7507 81.4596 14.9382L81.8192 16.9056ZM84.5081 16.6562L87.0081 16.6719L87.0206 14.6719L84.5206 14.6563L84.5081 16.6562ZM100.859 2L101.845 2.17064C101.895 1.87991 101.814 1.58178 101.624 1.35604C101.434 1.1303 101.154 1 100.859 1V2ZM96.7031 26V27C97.1896 27 97.6055 26.65 97.6885 26.1706L96.7031 26ZM91.5469 26L90.5615 25.8294C90.5112 26.1201 90.5918 26.4182 90.7818 26.644C90.9718 26.8697 91.2518 27 91.5469 27V26ZM95.7031 2V1C95.2167 1 94.8008 1.35005 94.7178 1.82936L95.7031 2ZM99.874 1.82936L95.7178 25.8294L97.6885 26.1706L101.845 2.17064L99.874 1.82936ZM96.7031 25H91.5469V27H96.7031V25ZM92.5322 26.1706L96.6885 2.17064L94.7178 1.82936L90.5615 25.8294L92.5322 26.1706ZM95.7031 3H100.859V1H95.7031V3Z" fill="#23212C" mask="url(#path-3-outside-1_443_5)"/>
<path d="M11.0938 3.25L7.14062 26H2.1875L6.125 3.25H11.0938ZM18.125 12.8438L17.4375 16.7812H7.34375L8.03125 12.8438H18.125ZM20.75 3.25L20.0625 7.20312H9L9.70312 3.25H20.75ZM27.0487 21.6719L29.2362 9.09375H34.0175L31.08 26H26.6269L27.0487 21.6719ZM28.0331 18.4531L29.3456 18.4219C29.231 19.3906 29.0123 20.3542 28.6894 21.3125C28.3769 22.2604 27.9394 23.1146 27.3769 23.875C26.8248 24.6354 26.1321 25.2396 25.2987 25.6875C24.4758 26.1354 23.5019 26.349 22.3769 26.3281C21.4498 26.3073 20.6685 26.1302 20.0331 25.7969C19.3977 25.4635 18.8873 25.0052 18.5019 24.4219C18.1269 23.8385 17.8717 23.1719 17.7362 22.4219C17.6112 21.6719 17.5904 20.875 17.6737 20.0312L19.5019 9.09375H24.2675L22.4081 20.0938C22.3769 20.4167 22.3769 20.724 22.4081 21.0156C22.4498 21.3073 22.5331 21.5625 22.6581 21.7812C22.7831 22 22.9602 22.1771 23.1894 22.3125C23.429 22.4375 23.7362 22.5052 24.1112 22.5156C24.955 22.5573 25.6425 22.3906 26.1737 22.0156C26.7154 21.6302 27.1321 21.125 27.4237 20.5C27.7258 19.8646 27.929 19.1823 28.0331 18.4531ZM43.5194 9.09375L42.91 12.5156H33.1756L33.7694 9.09375H43.5194ZM36.7225 4.90625H41.4881L38.7694 20.7344C38.7277 21.099 38.7277 21.401 38.7694 21.6406C38.8215 21.8802 38.936 22.0677 39.1131 22.2031C39.3006 22.3281 39.5871 22.401 39.9725 22.4219C40.2017 22.4323 40.4256 22.4271 40.6444 22.4062C40.8631 22.375 41.0819 22.349 41.3006 22.3281L40.9569 25.9062C40.5298 26.0417 40.0923 26.1406 39.6444 26.2031C39.2069 26.2656 38.759 26.2969 38.3006 26.2969C37.2694 26.276 36.4152 26.0625 35.7381 25.6562C35.061 25.2396 34.5715 24.6562 34.2694 23.9062C33.9777 23.1458 33.8787 22.2604 33.9725 21.25L36.7225 4.90625Z" fill="#23212C"/>
<circle cx="52.0001" cy="17" r="9" fill="url(#paint0_linear_443_5)" stroke="#23212C"/>
<path d="M38.5 33.0001C41.852 29.0384 45.3897 28.2341 49 27.6441C51.3135 27.2661 53.6567 26.9761 56 25.9998C61.1611 23.8493 64.8424 15.4094 58.4156 9.59106C56.077 7.47384 52.8637 6.75727 49.7196 6.49926C47.3875 6.30788 45.7551 5.8993 43.5 3" stroke="#23212C" stroke-width="2" stroke-linecap="round"/>
<path d="M38.5 33.0001C41.852 29.0384 45.3897 28.2341 49 27.6441C51.3135 27.2661 53.6567 26.9761 56 25.9998C61.1611 23.8493 64.8424 15.4094 58.4156 9.59106C56.077 7.47384 52.8637 6.75727 49.7196 6.49926C47.3875 6.30788 45.7551 5.8993 43.5 3" stroke="white" stroke-width="0.8" stroke-linecap="round"/>
<path d="M39.5 29.4998V29.4998C40.4178 27.6641 44.1102 26.5803 45.827 25.4558C52.7373 20.9294 55.0117 13.9594 47 8.99976L45.5 8" stroke="#23212C" stroke-width="2" stroke-linecap="round"/>
<path d="M39.5 29.4998V29.4998C40.4178 27.6641 44.1102 26.5803 45.827 25.4558C52.7373 20.9294 55.0117 13.9594 47 8.99976L45.5 8" stroke="white" stroke-width="0.8" stroke-linecap="round"/>
<path d="M61 21.9998C55.9725 25.0936 50.945 22.7037 47.3057 20.1511C45.4321 18.837 43.2884 17.5 41 17.5V17.5" stroke="#23212C" stroke-width="2" stroke-linecap="round"/>
<path d="M61 21.9998C55.9725 25.0936 50.945 22.7037 47.3057 20.1511C45.4321 18.837 43.2884 17.5 41 17.5V17.5" stroke="white" stroke-width="0.8" stroke-linecap="round"/>
<path d="M42 14.4998C46 14.4997 56.5 7.49973 61.5 12.4999" stroke="#23212C" stroke-width="2" stroke-linecap="round"/>
<path d="M42 14.4998C46 14.4997 56.5 7.49973 61.5 12.4999" stroke="white" stroke-width="0.8" stroke-linecap="round"/>
<defs>
<linearGradient id="paint0_linear_443_5" x1="42.5001" y1="17" x2="61.5001" y2="17" gradientUnits="userSpaceOnUse">
<stop stop-color="#EC008C"/>
<stop offset="1" stop-color="#FC6767"/>
</linearGradient>
</defs>
</svg>
