<svg width="103" height="35" viewBox="0 0 103 35" fill="none" xmlns="http://www.w3.org/2000/svg">
<path d="M67.3725 12.625L63.9194 32.5H58.7788L62.8413 9.09375H67.6069L67.3725 12.625ZM76.5913 17.25L76.5444 17.5781C76.4298 18.599 76.1954 19.6302 75.8413 20.6719C75.4975 21.7135 75.0235 22.6667 74.4194 23.5312C73.8256 24.3958 73.086 25.0885 72.2006 25.6094C71.3152 26.1198 70.2735 26.3594 69.0756 26.3281C68.0235 26.2969 67.1642 26.0052 66.4975 25.4531C65.8308 24.8906 65.31 24.1823 64.935 23.3281C64.5704 22.4635 64.3152 21.5521 64.1694 20.5938C64.034 19.625 63.9767 18.724 63.9975 17.8906L64.0444 17.4375C64.2006 16.5208 64.461 15.5521 64.8256 14.5312C65.1902 13.5104 65.6694 12.5625 66.2631 11.6875C66.8569 10.8021 67.5704 10.0885 68.4038 9.54688C69.2371 8.99479 70.2058 8.73438 71.31 8.76562C72.4663 8.79688 73.4142 9.07292 74.1538 9.59375C74.8933 10.1042 75.4558 10.776 75.8413 11.6094C76.2267 12.4323 76.4715 13.3385 76.5756 14.3281C76.6798 15.3177 76.685 16.2917 76.5913 17.25ZM71.4194 17.5625L71.4506 17.2344C71.4819 16.8594 71.5079 16.4271 71.5288 15.9375C71.5496 15.4479 71.5183 14.9688 71.435 14.5C71.3621 14.0312 71.1902 13.6406 70.9194 13.3281C70.659 13.0052 70.2579 12.8333 69.7163 12.8125C69.0808 12.7812 68.5496 12.8802 68.1225 13.1094C67.6954 13.3385 67.3465 13.6562 67.0756 14.0625C66.8152 14.4688 66.6121 14.9271 66.4663 15.4375C66.3204 15.9375 66.2163 16.4531 66.1538 16.9844L66.0131 18.2656C65.9402 18.8594 65.9246 19.4635 65.9663 20.0781C66.0079 20.6823 66.185 21.1927 66.4975 21.6094C66.8204 22.026 67.3621 22.2448 68.1225 22.2656C68.7267 22.276 69.2267 22.1302 69.6225 21.8281C70.0288 21.526 70.3517 21.1302 70.5913 20.6406C70.8413 20.151 71.0288 19.6354 71.1538 19.0938C71.2788 18.5417 71.3673 18.0312 71.4194 17.5625ZM85.3425 21.75L86.4363 14.7188C86.4779 14.3438 86.4727 13.9844 86.4206 13.6406C86.379 13.2969 86.2488 13.0156 86.03 12.7969C85.8217 12.5677 85.4935 12.4479 85.0456 12.4375C84.6394 12.4271 84.2956 12.5 84.0144 12.6562C83.7331 12.8125 83.5092 13.0312 83.3425 13.3125C83.1758 13.5938 83.056 13.9167 82.9831 14.2812L77.8269 14.3125C77.8685 13.3333 78.129 12.4896 78.6081 11.7812C79.0873 11.0729 79.7019 10.4948 80.4519 10.0469C81.2019 9.59896 82.0196 9.27083 82.905 9.0625C83.8008 8.85417 84.681 8.76042 85.5456 8.78125C86.7331 8.80208 87.806 9.05208 88.7644 9.53125C89.7331 10 90.4779 10.6823 90.9988 11.5781C91.53 12.4635 91.7331 13.5417 91.6081 14.8125L90.4988 21.75C90.405 22.375 90.3217 23.0417 90.2488 23.75C90.1758 24.4479 90.28 25.099 90.5613 25.7031L90.5456 26L85.53 26.0156C85.3008 25.3385 85.1863 24.6354 85.1863 23.9062C85.1863 23.1771 85.2383 22.4583 85.3425 21.75ZM87.0144 15.6719L86.5456 18.4844L84.53 18.4688C84.1342 18.4792 83.754 18.5469 83.3894 18.6719C83.0352 18.7865 82.7175 18.9531 82.4363 19.1719C82.155 19.3906 81.9206 19.6615 81.7331 19.9844C81.556 20.3073 81.4415 20.6771 81.3894 21.0938C81.3477 21.375 81.3685 21.6302 81.4519 21.8594C81.5456 22.0781 81.6863 22.2552 81.8738 22.3906C82.0717 22.526 82.3165 22.599 82.6081 22.6094C83.056 22.6198 83.4883 22.5365 83.905 22.3594C84.3217 22.1823 84.681 21.9323 84.9831 21.6094C85.2956 21.2865 85.5092 20.9115 85.6238 20.4844L86.53 22.6875C86.2592 23.2292 85.9467 23.724 85.5925 24.1719C85.2488 24.6198 84.8581 25.0104 84.4206 25.3438C83.9935 25.6667 83.5144 25.9167 82.9831 26.0938C82.4519 26.2708 81.8633 26.3542 81.2175 26.3438C80.2904 26.3229 79.4363 26.099 78.655 25.6719C77.8738 25.2448 77.254 24.6615 76.7956 23.9219C76.3373 23.1823 76.1238 22.3281 76.155 21.3594C76.1967 20.2344 76.4727 19.3021 76.9831 18.5625C77.4935 17.8229 78.155 17.2448 78.9675 16.8281C79.7904 16.401 80.681 16.099 81.6394 15.9219C82.6081 15.7448 83.5665 15.6562 84.5144 15.6562L87.0144 15.6719ZM100.859 2L96.7031 26H91.5469L95.7031 2H100.859Z" fill="#17D895"/>
<path d="M11.0938 3.25L7.14062 26H2.1875L6.125 3.25H11.0938ZM18.125 12.8438L17.4375 16.7812H7.34375L8.03125 12.8438H18.125ZM20.75 3.25L20.0625 7.20312H9L9.70312 3.25H20.75ZM27.0487 21.6719L29.2362 9.09375H34.0175L31.08 26H26.6269L27.0487 21.6719ZM28.0331 18.4531L29.3456 18.4219C29.231 19.3906 29.0123 20.3542 28.6894 21.3125C28.3769 22.2604 27.9394 23.1146 27.3769 23.875C26.8248 24.6354 26.1321 25.2396 25.2987 25.6875C24.4758 26.1354 23.5019 26.349 22.3769 26.3281C21.4498 26.3073 20.6685 26.1302 20.0331 25.7969C19.3977 25.4635 18.8873 25.0052 18.5019 24.4219C18.1269 23.8385 17.8717 23.1719 17.7362 22.4219C17.6112 21.6719 17.5904 20.875 17.6737 20.0312L19.5019 9.09375H24.2675L22.4081 20.0938C22.3769 20.4167 22.3769 20.724 22.4081 21.0156C22.4498 21.3073 22.5331 21.5625 22.6581 21.7812C22.7831 22 22.9602 22.1771 23.1894 22.3125C23.429 22.4375 23.7362 22.5052 24.1112 22.5156C24.955 22.5573 25.6425 22.3906 26.1737 22.0156C26.7154 21.6302 27.1321 21.125 27.4237 20.5C27.7258 19.8646 27.929 19.1823 28.0331 18.4531ZM43.5194 9.09375L42.91 12.5156H33.1756L33.7694 9.09375H43.5194ZM36.7225 4.90625H41.4881L38.7694 20.7344C38.7277 21.099 38.7277 21.401 38.7694 21.6406C38.8215 21.8802 38.936 22.0677 39.1131 22.2031C39.3006 22.3281 39.5871 22.401 39.9725 22.4219C40.2017 22.4323 40.4256 22.4271 40.6444 22.4062C40.8631 22.375 41.0819 22.349 41.3006 22.3281L40.9569 25.9062C40.5298 26.0417 40.0923 26.1406 39.6444 26.2031C39.2069 26.2656 38.759 26.2969 38.3006 26.2969C37.2694 26.276 36.4152 26.0625 35.7381 25.6562C35.061 25.2396 34.5715 24.6562 34.2694 23.9062C33.9777 23.1458 33.8787 22.2604 33.9725 21.25L36.7225 4.90625Z" fill="#23212C"/>
<circle cx="52.0001" cy="17" r="9.25" fill="url(#paint0_linear_443_5)" stroke="#23212C" stroke-width="0.5"/>
<path d="M38.5 33.0001C41.852 29.0384 45.3897 28.2341 49 27.6441C51.3135 27.2661 53.6567 26.9761 56 25.9998C61.1611 23.8493 64.8424 15.4094 58.4156 9.59106C56.077 7.47384 52.8637 6.75727 49.7196 6.49926C47.3875 6.30788 45.7551 5.8993 43.5 3" stroke="#23212C" stroke-linecap="round"/>
<path d="M39.5 29.4998V29.4998C40.4178 27.6641 44.1102 26.5803 45.827 25.4558C52.7373 20.9294 55.0117 13.9594 47 8.99976L45.5 8" stroke="#23212C" stroke-linecap="round"/>
<path d="M61 21.9998C55.9725 25.0936 50.945 22.7037 47.3057 20.1511C45.4321 18.837 43.2884 17.5 41 17.5V17.5" stroke="#23212C" stroke-linecap="round"/>
<path d="M42 14.4998C46 14.4997 56.5 7.49973 61.5 12.4999" stroke="#23212C" stroke-linecap="round"/>
<defs>
<linearGradient id="paint0_linear_443_5" x1="42.5001" y1="17" x2="61.5001" y2="17" gradientUnits="userSpaceOnUse">
<stop stop-color="#EC008C"/>
<stop offset="1" stop-color="#FC6767"/>
</linearGradient>
</defs>
</svg>
