<svg class="pulseAnimation" width="511" height="447" viewBox="0  0  511  447" fill="none" xmlns="http://www.w3.org/2000/svg">
  <style>
    @keyframes starting {
      0% {
        opacity: 0;
    }
      100% {
          opacity: 1;
    }
  }
  @keyframes pulsing {
      0%, 100% {
          opacity: 0.85;
      }
      50% {
          opacity: 0.5;
      }
  }
  @keyframes ending {
      0% {
          opacity: 0.85;
      }
      100% {
          opacity: 1;
      }
  }
  #bracket, #fry {
      animation:  starting 2s ease 0s 1 normal none running,
                  pulsing 1s ease 2s 5 normal none running, 
                  ending 2s ease-out 7s 1 normal none running;
  }
  #lines {
      animation:  starting 2s ease-in 0s 1 normal none running 
  }
  </style>
  <path id="bracket" d="M284 80L325 64L510 209.5V250L291 435L251 402L263.5 374.5L438 229.814L291 120.5L284 80Z" fill="#D9D9D9"/>
  <path id="lines" d="M284 80L325 64L510 209.5M284 80L462.5 209.5L438 229.814M284 80L291 120.5L438 229.814M510 209.5L300 402M510 209.5V250L291 435M300 402L263.5 374.5M300 402L291 435M263.5 374.5L438 229.814M263.5 374.5L251 402L291 435" stroke="black"/>
  <path id="fry" d="M68 398.5L390 28L426 1L441 9.5L459 46L426 75.5L113.5 445.5L87 429.5L68 398.5Z" fill="#EDAB4F"/>
  <path id="lines" d="M68 398.5L390 28L426 1M68 398.5L102 419M68 398.5L87 429.5L113.5 445.5M426 1L441 28M426 1L441 9.5L459 46M441 28L408 56.5L102 419M441 28L459 46M102 419L113.5 445.5M113.5 445.5L426 75.5L459 46" stroke="black"/>
  <path id="bracket" d="M1 138.5L234 12H260.5L277.5 56.5L80.2284 160.5L192.5 272L198.5 311.5L156 323.5L17 178.5L1 138.5Z" fill="#D9D9D9"/>
  <path id="lines" d="M260.5 12L47 127.5L80.2284 160.5M260.5 12H234L1 138.5M260.5 12L277.5 56.5L80.2284 160.5M192.5 272L149 285M192.5 272L198.5 311.5L156 323.5M192.5 272L80.2284 160.5M149 285L1 138.5M149 285L156 323.5M1 138.5L17 178.5L156 323.5" stroke="black"/>
</svg>
