<svg width="322" height="116" viewBox="0 0 322 116" fill="none" xmlns="http://www.w3.org/2000/svg">
<path d="M70.695 82C67.5237 76.3673 64.092 70.8057 60.4 65.315C56.708 59.8243 52.7793 54.6413 48.614 49.766V82H37.68V32.797H46.697C48.259 34.359 49.9867 36.276 51.88 38.548C53.7733 40.82 55.6903 43.2577 57.631 45.861C59.619 48.417 61.5833 51.0913 63.524 53.884C65.4647 56.6293 67.287 59.28 68.991 61.836V32.797H79.996V82H70.695ZM124.394 35.353L134.973 33.649V44.654H147.682V53.458H134.973V66.593C134.973 68.8177 135.352 70.5927 136.109 71.918C136.914 73.2433 138.5 73.906 140.866 73.906C142.002 73.906 143.162 73.8113 144.345 73.622C145.576 73.3853 146.688 73.0777 147.682 72.699L149.173 80.935C147.895 81.4557 146.475 81.9053 144.913 82.284C143.351 82.6627 141.434 82.852 139.162 82.852C136.275 82.852 133.885 82.4733 131.991 81.716C130.098 80.9113 128.583 79.8227 127.447 78.45C126.311 77.03 125.507 75.326 125.033 73.338C124.607 71.35 124.394 69.149 124.394 66.735V35.353ZM189.842 63.256C189.842 66.1907 189.416 68.8887 188.564 71.35C187.712 73.764 186.482 75.8467 184.872 77.598C183.263 79.302 181.322 80.6273 179.05 81.574C176.826 82.5207 174.317 82.994 171.524 82.994C168.779 82.994 166.27 82.5207 163.998 81.574C161.774 80.6273 159.857 79.302 158.247 77.598C156.638 75.8467 155.384 73.764 154.484 71.35C153.585 68.8887 153.135 66.1907 153.135 63.256C153.135 60.3213 153.585 57.647 154.484 55.233C155.431 52.819 156.709 50.76 158.318 49.056C159.975 47.352 161.916 46.0267 164.14 45.08C166.412 44.1333 168.874 43.66 171.524 43.66C174.222 43.66 176.684 44.1333 178.908 45.08C181.18 46.0267 183.121 47.352 184.73 49.056C186.34 50.76 187.594 52.819 188.493 55.233C189.393 57.647 189.842 60.3213 189.842 63.256ZM179.05 63.256C179.05 59.99 178.388 57.434 177.062 55.588C175.784 53.6947 173.938 52.748 171.524 52.748C169.11 52.748 167.241 53.6947 165.915 55.588C164.59 57.434 163.927 59.99 163.927 63.256C163.927 66.522 164.59 69.1253 165.915 71.066C167.241 72.9593 169.11 73.906 171.524 73.906C173.938 73.906 175.784 72.9593 177.062 71.066C178.388 69.1253 179.05 66.522 179.05 63.256ZM221.964 63.611C221.964 60.345 221.231 57.7417 219.763 55.801C218.296 53.813 216.119 52.819 213.231 52.819C212.285 52.819 211.409 52.8663 210.604 52.961C209.8 53.0083 209.137 53.0793 208.616 53.174V72.273C209.279 72.699 210.131 73.054 211.172 73.338C212.261 73.622 213.35 73.764 214.438 73.764C219.456 73.764 221.964 70.3797 221.964 63.611ZM232.756 63.327C232.756 66.2143 232.401 68.8413 231.691 71.208C230.981 73.5747 229.94 75.61 228.567 77.314C227.195 79.018 225.491 80.3433 223.455 81.29C221.42 82.2367 219.077 82.71 216.426 82.71C214.959 82.71 213.586 82.568 212.308 82.284C211.03 82 209.8 81.5977 208.616 81.077V95.135H198.037V45.932C198.984 45.648 200.073 45.3877 201.303 45.151C202.534 44.867 203.812 44.6303 205.137 44.441C206.51 44.2517 207.883 44.1097 209.255 44.015C210.675 43.873 212.024 43.802 213.302 43.802C216.379 43.802 219.124 44.2753 221.538 45.222C223.952 46.1213 225.988 47.423 227.644 49.127C229.301 50.7837 230.555 52.819 231.407 55.233C232.307 57.647 232.756 60.345 232.756 63.327ZM251.466 82H240.887V44.654H251.466V82ZM252.46 33.862C252.46 35.8027 251.821 37.341 250.543 38.477C249.312 39.5657 247.845 40.11 246.141 40.11C244.437 40.11 242.946 39.5657 241.668 38.477C240.437 37.341 239.822 35.8027 239.822 33.862C239.822 31.9213 240.437 30.4067 241.668 29.318C242.946 28.182 244.437 27.614 246.141 27.614C247.845 27.614 249.312 28.182 250.543 29.318C251.821 30.4067 252.46 31.9213 252.46 33.862ZM275.681 74.616C276.723 74.616 277.717 74.5923 278.663 74.545C279.61 74.4977 280.367 74.4267 280.935 74.332V66.309C280.509 66.2143 279.87 66.1197 279.018 66.025C278.166 65.9303 277.385 65.883 276.675 65.883C275.681 65.883 274.735 65.954 273.835 66.096C272.983 66.1907 272.226 66.4037 271.563 66.735C270.901 67.0663 270.38 67.516 270.001 68.084C269.623 68.652 269.433 69.362 269.433 70.214C269.433 71.8707 269.978 73.0303 271.066 73.693C272.202 74.3083 273.741 74.616 275.681 74.616ZM274.829 43.66C277.953 43.66 280.557 44.015 282.639 44.725C284.722 45.435 286.379 46.4527 287.609 47.778C288.887 49.1033 289.787 50.7127 290.307 52.606C290.828 54.4993 291.088 56.6057 291.088 58.925V80.935C289.574 81.2663 287.467 81.645 284.769 82.071C282.071 82.5443 278.805 82.781 274.971 82.781C272.557 82.781 270.356 82.568 268.368 82.142C266.428 81.716 264.747 81.0297 263.327 80.083C261.907 79.089 260.819 77.811 260.061 76.249C259.304 74.687 258.925 72.77 258.925 70.498C258.925 68.3207 259.351 66.4747 260.203 64.96C261.103 63.4453 262.286 62.2383 263.753 61.339C265.221 60.4397 266.901 59.8007 268.794 59.422C270.688 58.996 272.652 58.783 274.687 58.783C276.06 58.783 277.267 58.854 278.308 58.996C279.397 59.0907 280.273 59.2327 280.935 59.422V58.428C280.935 56.6293 280.391 55.1857 279.302 54.097C278.214 53.0083 276.32 52.464 273.622 52.464C271.824 52.464 270.049 52.606 268.297 52.89C266.546 53.1267 265.031 53.4817 263.753 53.955L262.404 45.435C263.02 45.2457 263.777 45.0563 264.676 44.867C265.623 44.6303 266.641 44.441 267.729 44.299C268.818 44.1097 269.954 43.9677 271.137 43.873C272.368 43.731 273.599 43.66 274.829 43.66Z" fill="black"/>
<circle cx="102" cy="62" r="20" fill="#0026EE"/>
<path d="M82.5 58.5C67.3333 69.3333 40.5 92.1 54.5 96.5C72 102 190.5 63 234 37.5" stroke="black"/>
</svg>
