<svg width="873" height="189" viewBox="0 0 873 189" fill="none" xmlns="http://www.w3.org/2000/svg">
<path d="M354.083 130.985C356.671 130.985 358.966 130.497 360.968 129.521C362.97 128.495 364.532 127.079 365.655 125.272C366.827 123.417 367.438 121.244 367.486 118.754H387.335C387.286 124.32 385.797 129.276 382.867 133.622C379.938 137.919 376.007 141.312 371.075 143.803C366.144 146.244 360.626 147.465 354.522 147.465C348.37 147.465 342.999 146.439 338.409 144.389C333.868 142.338 330.084 139.506 327.057 135.893C324.029 132.23 321.759 127.982 320.245 123.148C318.731 118.266 317.975 113.041 317.975 107.475V105.351C317.975 99.7354 318.731 94.5107 320.245 89.6768C321.759 84.7939 324.029 80.5459 327.057 76.9326C330.084 73.2705 333.868 70.4141 338.409 68.3633C342.95 66.3125 348.272 65.2871 354.376 65.2871C360.87 65.2871 366.559 66.5322 371.441 69.0225C376.373 71.5127 380.23 75.0771 383.014 79.7158C385.846 84.3057 387.286 89.75 387.335 96.0488H367.486C367.438 93.4121 366.876 91.0195 365.802 88.8711C364.776 86.7227 363.263 85.0137 361.261 83.7441C359.308 82.4258 356.891 81.7666 354.01 81.7666C350.934 81.7666 348.419 82.4258 346.466 83.7441C344.513 85.0137 342.999 86.7715 341.925 89.0176C340.851 91.2148 340.094 93.7295 339.654 96.5615C339.264 99.3447 339.068 102.274 339.068 105.351V107.475C339.068 110.551 339.264 113.505 339.654 116.337C340.045 119.169 340.777 121.684 341.852 123.881C342.975 126.078 344.513 127.812 346.466 129.081C348.419 130.351 350.958 130.985 354.083 130.985ZM396.197 107.182V105.644C396.197 99.833 397.027 94.4863 398.688 89.6035C400.348 84.6719 402.765 80.3994 405.938 76.7861C409.112 73.1729 413.019 70.3652 417.657 68.3633C422.296 66.3125 427.618 65.2871 433.624 65.2871C439.63 65.2871 444.977 66.3125 449.664 68.3633C454.352 70.3652 458.282 73.1729 461.456 76.7861C464.679 80.3994 467.12 84.6719 468.78 89.6035C470.44 94.4863 471.271 99.833 471.271 105.644V107.182C471.271 112.943 470.44 118.29 468.78 123.222C467.12 128.104 464.679 132.377 461.456 136.039C458.282 139.652 454.376 142.46 449.737 144.462C445.099 146.464 439.776 147.465 433.771 147.465C427.765 147.465 422.418 146.464 417.73 144.462C413.092 142.46 409.161 139.652 405.938 136.039C402.765 132.377 400.348 128.104 398.688 123.222C397.027 118.29 396.197 112.943 396.197 107.182ZM417.291 105.644V107.182C417.291 110.502 417.584 113.603 418.17 116.483C418.756 119.364 419.684 121.903 420.953 124.101C422.271 126.249 423.98 127.934 426.08 129.154C428.18 130.375 430.743 130.985 433.771 130.985C436.7 130.985 439.215 130.375 441.314 129.154C443.414 127.934 445.099 126.249 446.368 124.101C447.638 121.903 448.565 119.364 449.151 116.483C449.786 113.603 450.104 110.502 450.104 107.182V105.644C450.104 102.421 449.786 99.3936 449.151 96.5615C448.565 93.6807 447.613 91.1416 446.295 88.9443C445.025 86.6982 443.341 84.9404 441.241 83.6709C439.142 82.4014 436.603 81.7666 433.624 81.7666C430.646 81.7666 428.106 82.4014 426.007 83.6709C423.956 84.9404 422.271 86.6982 420.953 88.9443C419.684 91.1416 418.756 93.6807 418.17 96.5615C417.584 99.3936 417.291 102.421 417.291 105.644ZM510.016 130.619L527.594 66.752H549.64L522.906 146H509.576L510.016 130.619ZM497.931 66.752L515.582 130.692L515.948 146H502.545L475.812 66.752H497.931ZM594.537 147.465C588.385 147.465 582.867 146.488 577.984 144.535C573.102 142.533 568.951 139.774 565.533 136.259C562.164 132.743 559.576 128.666 557.77 124.027C555.963 119.34 555.06 114.359 555.06 109.086V106.156C555.06 100.15 555.914 94.6572 557.623 89.6768C559.332 84.6963 561.773 80.375 564.947 76.7129C568.17 73.0508 572.076 70.2432 576.666 68.29C581.256 66.2881 586.432 65.2871 592.193 65.2871C597.809 65.2871 602.789 66.2148 607.135 68.0703C611.48 69.9258 615.118 72.5625 618.048 75.9805C621.026 79.3984 623.272 83.5 624.786 88.2852C626.3 93.0215 627.057 98.2949 627.057 104.105V112.895H564.068V98.832H606.329V97.2207C606.329 94.291 605.792 91.6787 604.718 89.3838C603.692 87.04 602.13 85.1846 600.03 83.8174C597.931 82.4502 595.245 81.7666 591.974 81.7666C589.19 81.7666 586.798 82.377 584.796 83.5977C582.794 84.8184 581.158 86.5273 579.889 88.7246C578.668 90.9219 577.74 93.5098 577.105 96.4883C576.52 99.418 576.227 102.641 576.227 106.156V109.086C576.227 112.26 576.666 115.189 577.545 117.875C578.473 120.561 579.767 122.88 581.427 124.833C583.136 126.786 585.187 128.3 587.579 129.374C590.021 130.448 592.779 130.985 595.855 130.985C599.664 130.985 603.204 130.253 606.476 128.788C609.796 127.274 612.652 125.004 615.045 121.977L625.299 133.109C623.639 135.502 621.368 137.797 618.487 139.994C615.655 142.191 612.237 143.998 608.233 145.414C604.229 146.781 599.664 147.465 594.537 147.465ZM660.162 84.0371V146H639.068V66.752H658.917L660.162 84.0371ZM684.039 66.2393L683.673 85.7949C682.647 85.6484 681.402 85.5264 679.938 85.4287C678.521 85.2822 677.228 85.209 676.056 85.209C673.077 85.209 670.489 85.5996 668.292 86.3809C666.144 87.1133 664.337 88.2119 662.872 89.6768C661.456 91.1416 660.382 92.9238 659.649 95.0234C658.966 97.123 658.575 99.5156 658.478 102.201L654.229 100.883C654.229 95.7559 654.742 91.0439 655.768 86.7471C656.793 82.4014 658.282 78.6172 660.235 75.3945C662.237 72.1719 664.679 69.6816 667.56 67.9238C670.44 66.166 673.736 65.2871 677.447 65.2871C678.619 65.2871 679.815 65.3848 681.036 65.5801C682.257 65.7266 683.258 65.9463 684.039 66.2393ZM729.01 147.465C722.857 147.465 717.34 146.488 712.457 144.535C707.574 142.533 703.424 139.774 700.006 136.259C696.637 132.743 694.049 128.666 692.242 124.027C690.436 119.34 689.532 114.359 689.532 109.086V106.156C689.532 100.15 690.387 94.6572 692.096 89.6768C693.805 84.6963 696.246 80.375 699.42 76.7129C702.643 73.0508 706.549 70.2432 711.139 68.29C715.729 66.2881 720.904 65.2871 726.666 65.2871C732.281 65.2871 737.262 66.2148 741.607 68.0703C745.953 69.9258 749.591 72.5625 752.521 75.9805C755.499 79.3984 757.745 83.5 759.259 88.2852C760.772 93.0215 761.529 98.2949 761.529 104.105V112.895H698.541V98.832H740.802V97.2207C740.802 94.291 740.265 91.6787 739.19 89.3838C738.165 87.04 736.603 85.1846 734.503 83.8174C732.403 82.4502 729.718 81.7666 726.446 81.7666C723.663 81.7666 721.271 82.377 719.269 83.5977C717.267 84.8184 715.631 86.5273 714.361 88.7246C713.141 90.9219 712.213 93.5098 711.578 96.4883C710.992 99.418 710.699 102.641 710.699 106.156V109.086C710.699 112.26 711.139 115.189 712.018 117.875C712.945 120.561 714.239 122.88 715.899 124.833C717.608 126.786 719.659 128.3 722.052 129.374C724.493 130.448 727.252 130.985 730.328 130.985C734.137 130.985 737.677 130.253 740.948 128.788C744.269 127.274 747.125 125.004 749.518 121.977L759.771 133.109C758.111 135.502 755.841 137.797 752.96 139.994C750.128 142.191 746.71 143.998 742.706 145.414C738.702 146.781 734.137 147.465 729.01 147.465ZM820.343 128.715V33.5H841.583V146H822.467L820.343 128.715ZM770.245 107.328V105.79C770.245 99.7354 770.929 94.2422 772.296 89.3105C773.663 84.3301 775.665 80.0576 778.302 76.4932C780.938 72.9287 784.186 70.1699 788.043 68.2168C791.9 66.2637 796.295 65.2871 801.227 65.2871C805.865 65.2871 809.918 66.2637 813.385 68.2168C816.9 70.1699 819.879 72.9531 822.32 76.5664C824.811 80.1309 826.812 84.3545 828.326 89.2373C829.84 94.0713 830.938 99.3691 831.622 105.131V108.5C830.938 114.018 829.84 119.145 828.326 123.881C826.812 128.617 824.811 132.768 822.32 136.332C819.879 139.848 816.9 142.582 813.385 144.535C809.869 146.488 805.768 147.465 801.08 147.465C796.148 147.465 791.754 146.464 787.896 144.462C784.088 142.46 780.865 139.652 778.229 136.039C775.641 132.426 773.663 128.178 772.296 123.295C770.929 118.412 770.245 113.09 770.245 107.328ZM791.339 105.79V107.328C791.339 110.6 791.583 113.651 792.071 116.483C792.608 119.315 793.463 121.83 794.635 124.027C795.855 126.176 797.418 127.86 799.322 129.081C801.275 130.253 803.644 130.839 806.427 130.839C810.04 130.839 813.019 130.033 815.362 128.422C817.706 126.762 819.488 124.491 820.709 121.61C821.979 118.729 822.711 115.409 822.906 111.649V102.055C822.76 98.9785 822.32 96.2197 821.588 93.7783C820.904 91.2881 819.879 89.1641 818.512 87.4062C817.193 85.6484 815.533 84.2812 813.531 83.3047C811.578 82.3281 809.259 81.8398 806.573 81.8398C803.839 81.8398 801.495 82.4746 799.542 83.7441C797.589 84.9648 796.002 86.6494 794.781 88.7979C793.609 90.9463 792.73 93.4854 792.145 96.415C791.607 99.2959 791.339 102.421 791.339 105.79Z" fill="#373E44"/>
<path d="M278.476 135.819C278.476 132.694 279.55 130.082 281.698 127.982C283.896 125.883 286.801 124.833 290.414 124.833C294.027 124.833 296.908 125.883 299.057 127.982C301.254 130.082 302.353 132.694 302.353 135.819C302.353 138.944 301.254 141.557 299.057 143.656C296.908 145.756 294.027 146.806 290.414 146.806C286.801 146.806 283.896 145.756 281.698 143.656C279.55 141.557 278.476 138.944 278.476 135.819Z" fill="#CC1016"/>
<path d="M76.4805 66.752L73.4775 83.8906H27.042L30.0449 66.752H76.4805ZM43.1553 47.0498H67.252L54.6543 120.292C54.459 122.001 54.459 123.417 54.6543 124.54C54.8496 125.614 55.3623 126.444 56.1924 127.03C57.0713 127.567 58.4141 127.885 60.2207 127.982C61.2461 128.031 62.2715 128.007 63.2969 127.909C64.3223 127.812 65.3477 127.714 66.373 127.616L64.6885 145.487C62.5889 146.171 60.4404 146.659 58.2432 146.952C56.0947 147.245 53.8975 147.392 51.6514 147.392C46.6709 147.294 42.4961 146.293 39.127 144.389C35.8066 142.436 33.3896 139.677 31.876 136.112C30.4111 132.499 29.8984 128.202 30.3379 123.222L43.1553 47.0498ZM115.299 33.5L95.7432 146H71.6465L91.2021 33.5H115.299ZM100.357 103.666L95.084 103.886C95.5234 99.4912 96.4756 94.999 97.9404 90.4092C99.4541 85.8193 101.505 81.5957 104.093 77.7383C106.729 73.8809 109.977 70.8047 113.834 68.5098C117.691 66.166 122.232 65.0674 127.457 65.2139C132.047 65.3115 135.831 66.2393 138.81 67.9971C141.837 69.7549 144.181 72.123 145.841 75.1016C147.55 78.0312 148.673 81.376 149.21 85.1357C149.747 88.8467 149.796 92.7285 149.356 96.7812L141.153 146H116.91L125.26 96.5615C125.504 94.2178 125.455 92.1426 125.113 90.3359C124.771 88.4805 123.941 87.0156 122.623 85.9414C121.354 84.8184 119.425 84.2324 116.837 84.1836C113.907 84.1348 111.466 84.6475 109.513 85.7217C107.56 86.7959 105.973 88.2852 104.752 90.1895C103.531 92.0449 102.579 94.1445 101.896 96.4883C101.261 98.832 100.748 101.225 100.357 103.666ZM193.521 66.752L179.825 146H155.655L169.425 66.752H193.521ZM171.549 46.7568C171.451 42.9482 172.721 39.9209 175.357 37.6748C178.043 35.4287 181.192 34.2813 184.806 34.2324C188.272 34.1836 191.349 35.209 194.034 37.3086C196.72 39.3594 198.087 42.2158 198.136 45.8779C198.233 49.6865 196.939 52.7139 194.254 54.96C191.617 57.2061 188.492 58.3535 184.879 58.4023C181.412 58.4512 178.336 57.4502 175.65 55.3994C173.014 53.2998 171.646 50.4189 171.549 46.7568ZM239.078 123.295C239.469 121.244 238.858 119.682 237.247 118.607C235.685 117.484 233.805 116.654 231.607 116.117C229.459 115.531 227.726 115.067 226.407 114.726C223.429 113.944 220.475 112.943 217.545 111.723C214.615 110.453 211.954 108.891 209.562 107.035C207.218 105.131 205.338 102.86 203.922 100.224C202.555 97.5381 201.944 94.4131 202.091 90.8486C202.237 86.4541 203.336 82.6455 205.387 79.4229C207.486 76.2002 210.196 73.5391 213.517 71.4395C216.837 69.291 220.45 67.7041 224.356 66.6787C228.312 65.6533 232.242 65.1895 236.148 65.2871C241.52 65.3359 246.573 66.2881 251.31 68.1436C256.095 69.999 259.977 72.8311 262.955 76.6396C265.982 80.4482 267.521 85.2822 267.569 91.1416L243.619 91.0684C243.668 89.1641 243.424 87.5039 242.887 86.0879C242.398 84.6719 241.544 83.5977 240.323 82.8652C239.103 82.084 237.442 81.6934 235.343 81.6934C233.78 81.6934 232.242 82.0107 230.729 82.6455C229.215 83.2803 227.896 84.1836 226.773 85.3555C225.699 86.5273 225.016 87.9434 224.723 89.6035C224.43 91.0195 224.625 92.2158 225.309 93.1924C225.992 94.1201 226.92 94.877 228.092 95.4629C229.264 96.0488 230.484 96.5371 231.754 96.9277C233.072 97.2695 234.244 97.5381 235.27 97.7334C239.713 98.8076 244.01 100.248 248.16 102.055C252.359 103.812 255.777 106.327 258.414 109.599C261.1 112.821 262.369 117.118 262.223 122.489C262.076 127.03 260.855 130.912 258.561 134.135C256.266 137.309 253.312 139.896 249.698 141.898C246.134 143.852 242.276 145.268 238.126 146.146C234.024 147.074 230.045 147.514 226.188 147.465C220.816 147.367 215.738 146.293 210.953 144.242C206.168 142.143 202.262 139.115 199.234 135.16C196.256 131.156 194.693 126.249 194.547 120.438L216.812 120.512C216.861 122.807 217.276 124.735 218.058 126.298C218.888 127.812 220.084 128.983 221.646 129.813C223.209 130.595 225.138 130.985 227.433 130.985C229.142 130.985 230.802 130.741 232.413 130.253C234.073 129.716 235.489 128.886 236.661 127.763C237.882 126.591 238.688 125.102 239.078 123.295Z" fill="#0A66C2"/>
</svg>
